<svg width="18" height="19" viewBox="0 0 18 19" fill="none" xmlns="http://www.w3.org/2000/svg">
<path d="M9.67209 1.27287L9.67077 1.27166C9.48746 1.10382 9.24793 1.01073 8.99939 1.01074C8.75085 1.01076 8.51133 1.10388 8.32805 1.27175L8.32671 1.27298L0.827627 8.09153C0.827587 8.09156 0.827548 8.0916 0.827509 8.09163C0.724461 8.1855 0.642111 8.29983 0.585717 8.4273C0.529326 8.55478 0.500126 8.6926 0.499979 8.83199V17.4657V17.4714H0.499946C0.497045 17.7256 0.586966 17.9721 0.752804 18.1647L9.67209 1.27287ZM9.67209 1.27287L17.1723 8.0915C17.2754 8.18542 17.3578 8.2998 17.4142 8.42735C17.4706 8.55489 17.4998 8.69279 17.5 8.83225V17.4996L9.67209 1.27287Z" stroke="#AAAAAA"/>
</svg>
